<svg xmlns="http://www.w3.org/2000/svg" viewBox="0 0 465.46 243.1"><defs><style>.cls-1{fill:none;stroke:#3f51b5;stroke-miterlimit:10;}</style></defs><title>Asset 3</title><g id="Layer_2" data-name="Layer 2"><g id="Layer_1-2" data-name="Layer 1"><line class="cls-1" x1="465.23" y1="0.44" x2="0.23" y2="242.65"/><line class="cls-1" x1="465.2" y1="24.93" x2="47.21" y2="242.65"/><line class="cls-1" x1="465.2" y1="49.26" x2="93.92" y2="242.65"/><line class="cls-1" x1="465.2" y1="70.97" x2="135.58" y2="242.65"/><line class="cls-1" x1="465.2" y1="95.43" x2="182.56" y2="242.65"/><line class="cls-1" x1="465.2" y1="119.77" x2="229.27" y2="242.65"/><line class="cls-1" x1="465.2" y1="145.74" x2="279.12" y2="242.65"/><line class="cls-1" x1="465.2" y1="170.2" x2="326.1" y2="242.65"/><line class="cls-1" x1="465.2" y1="194.53" x2="372.8" y2="242.65"/><line class="cls-1" x1="465.2" y1="219.16" x2="420.1" y2="242.65"/><line class="cls-1" x1="324.26" y1="0.44" x2="0.23" y2="169.23"/><line class="cls-1" x1="371.24" y1="0.44" x2="0.23" y2="193.69"/><line class="cls-1" x1="417.93" y1="0.44" x2="0.23" y2="218.02"/><line class="cls-1" x1="191.01" y1="0.44" x2="0.23" y2="99.82"/><line class="cls-1" x1="237.98" y1="0.44" x2="0.23" y2="124.28"/><line class="cls-1" x1="284.68" y1="0.44" x2="0.23" y2="148.62"/><line class="cls-1" x1="51.27" y1="0.44" x2="0.23" y2="27.03"/><line class="cls-1" x1="98.24" y1="0.44" x2="0.23" y2="51.49"/><line class="cls-1" x1="144.94" y1="0.44" x2="0.23" y2="75.83"/></g></g></svg>